<?xml version="1.0" standalone="no"?>
<svg xmlns:xlink="http://www.w3.org/1999/xlink" id="wave" style="transform:rotate(180deg); transition: 0.3s" viewBox="0 0 1440 420" version="1.1" xmlns="http://www.w3.org/2000/svg"><defs><linearGradient id="sw-gradient-0" x1="0" x2="0" y1="1" y2="0"><stop stop-color="rgba(32, 178, 170, 1)" offset="0%"/><stop stop-color="rgba(0, 31, 63, 1)" offset="100%"/></linearGradient></defs><path style="transform:translate(0, 0px); opacity:1" fill="url(#sw-gradient-0)" d="M0,378L26.7,357C53.3,336,107,294,160,294C213.3,294,267,336,320,301C373.3,266,427,154,480,91C533.3,28,587,14,640,14C693.3,14,747,28,800,28C853.3,28,907,14,960,14C1013.3,14,1067,28,1120,84C1173.3,140,1227,238,1280,252C1333.3,266,1387,196,1440,168C1493.3,140,1547,154,1600,182C1653.3,210,1707,252,1760,238C1813.3,224,1867,154,1920,161C1973.3,168,2027,252,2080,238C2133.3,224,2187,112,2240,112C2293.3,112,2347,224,2400,266C2453.3,308,2507,280,2560,266C2613.3,252,2667,252,2720,252C2773.3,252,2827,252,2880,231C2933.3,210,2987,168,3040,168C3093.3,168,3147,210,3200,217C3253.3,224,3307,196,3360,154C3413.3,112,3467,56,3520,63C3573.3,70,3627,140,3680,154C3733.3,168,3787,126,3813,105L3840,84L3840,420L3813.3,420C3786.7,420,3733,420,3680,420C3626.7,420,3573,420,3520,420C3466.7,420,3413,420,3360,420C3306.7,420,3253,420,3200,420C3146.7,420,3093,420,3040,420C2986.7,420,2933,420,2880,420C2826.7,420,2773,420,2720,420C2666.7,420,2613,420,2560,420C2506.7,420,2453,420,2400,420C2346.7,420,2293,420,2240,420C2186.7,420,2133,420,2080,420C2026.7,420,1973,420,1920,420C1866.7,420,1813,420,1760,420C1706.7,420,1653,420,1600,420C1546.7,420,1493,420,1440,420C1386.7,420,1333,420,1280,420C1226.7,420,1173,420,1120,420C1066.7,420,1013,420,960,420C906.7,420,853,420,800,420C746.7,420,693,420,640,420C586.7,420,533,420,480,420C426.7,420,373,420,320,420C266.7,420,213,420,160,420C106.7,420,53,420,27,420L0,420Z"/></svg>